<?xml version="1.0" encoding="UTF-8" standalone="no"?>
<!-- Created with Inkscape (http://www.inkscape.org/) -->

<svg
   width="100mm"
   height="100mm"
   viewBox="0 0 100 100"
   version="1.1"
   id="svg256"
   inkscape:version="1.2.1 (9c6d41e410, 2022-07-14, custom)"
   sodipodi:docname="icon.svg"
   inkscape:export-filename="icon-256x256.png"
   inkscape:export-xdpi="65.019997"
   inkscape:export-ydpi="65.019997"
   xmlns:inkscape="http://www.inkscape.org/namespaces/inkscape"
   xmlns:sodipodi="http://sodipodi.sourceforge.net/DTD/sodipodi-0.dtd"
   xmlns:xlink="http://www.w3.org/1999/xlink"
   xmlns="http://www.w3.org/2000/svg"
   xmlns:svg="http://www.w3.org/2000/svg"
   xmlns:rdf="http://www.w3.org/1999/02/22-rdf-syntax-ns#"
   xmlns:cc="http://creativecommons.org/ns#"
   xmlns:dc="http://purl.org/dc/elements/1.1/">
  <title
     id="title489">NyanoTrasen Cat-Psi Icon</title>
  <sodipodi:namedview
     id="namedview258"
     pagecolor="#ffffff"
     bordercolor="#999999"
     borderopacity="1"
     inkscape:showpageshadow="0"
     inkscape:pageopacity="0"
     inkscape:pagecheckerboard="true"
     inkscape:deskcolor="#d1d1d1"
     inkscape:document-units="mm"
     showgrid="true"
     showguides="true"
     inkscape:zoom="1.4102292"
     inkscape:cx="195.35831"
     inkscape:cy="158.83943"
     inkscape:window-width="1916"
     inkscape:window-height="1049"
     inkscape:window-x="0"
     inkscape:window-y="27"
     inkscape:window-maximized="1"
     inkscape:current-layer="layer3">
    <sodipodi:guide
       position="50,50"
       orientation="0,1"
       id="guide931"
       inkscape:locked="false"
       inkscape:label=""
       inkscape:color="rgb(0,134,229)" />
    <sodipodi:guide
       position="50,50"
       orientation="-1,0"
       id="guide933"
       inkscape:locked="false"
       inkscape:label=""
       inkscape:color="rgb(0,134,229)" />
    <sodipodi:guide
       position="50,89.999999"
       orientation="0,1"
       id="guide998"
       inkscape:locked="false"
       inkscape:label=""
       inkscape:color="rgb(0,134,229)" />
    <sodipodi:guide
       position="50,9.9999999"
       orientation="0,1"
       id="guide1156"
       inkscape:locked="false"
       inkscape:label=""
       inkscape:color="rgb(0,134,229)" />
    <sodipodi:guide
       position="43.835168,31.782071"
       orientation="0,-1"
       id="guide1188"
       inkscape:locked="false" />
    <sodipodi:guide
       position="8.1267649,68.217929"
       orientation="1,0"
       id="guide1314"
       inkscape:locked="false" />
    <sodipodi:guide
       position="91.873234,68.217928"
       orientation="1,0"
       id="guide1318"
       inkscape:locked="false" />
    <sodipodi:guide
       position="70.88003,73.093831"
       orientation="0,-1"
       id="guide1322"
       inkscape:locked="false" />
    <inkscape:grid
       type="xygrid"
       id="grid776"
       spacingx="9.9999999"
       spacingy="9.9999999"
       empspacing="5"
       units="mm"
       dotted="true"
       empcolor="#00a851"
       empopacity="0.30196078"
       color="#00a92d"
       opacity="0.14901961" />
  </sodipodi:namedview>
  <defs
     id="defs253" />
  <g
     inkscape:groupmode="layer"
     id="layer4"
     inkscape:label="backdrop">
    <circle
       style="display:inline;fill:#5e5c64;stroke:#3d3846;stroke-width:0.5;stroke-linecap:round;stroke-miterlimit:7.2;stroke-dasharray:none;paint-order:normal"
       id="path616"
       r="40"
       cy="50"
       cx="50"
       inkscape:label="cat-face-background" />
  </g>
  <g
     inkscape:label="right-side"
     inkscape:groupmode="layer"
     id="layer1"
     inkscape:highlight-color="#3ea8e3">
    <path
       style="fill:#5e5c64;stroke:#3d3846;stroke-width:0.5;stroke-linecap:butt;stroke-linejoin:miter;stroke-miterlimit:6;stroke-dasharray:none;stroke-opacity:1"
       d="m 64.608066,18.042499 c 0,0 6.340997,-4.69981 9.766394,-6.639673 4.920824,-2.7867501 15.396135,-7.1262498 15.396135,-7.1262498 0,0 -8.224624,9.1649638 -9.583081,14.9165978 -0.718989,3.044157 0.852509,6.807414 1.003762,9.329896"
       id="path1257"
       sodipodi:nodetypes="cacac"
       inkscape:label="ear-back-fill" />
    <path
       id="rect1722"
       style="fill:#9a9996;stroke-width:3;stroke-linecap:round;stroke-miterlimit:7.2;paint-order:stroke fill markers"
       inkscape:label="eye-white"
       d="m 67.890787,41.811844 c 4.106305,-3.92612 15.754993,-6.501202 15.754993,-6.501202 0,0 -3.976209,14.964758 -9.48092,19.77449 -3.870215,3.381594 -14.671459,4.74046 -14.671459,4.74046 0,0 3.608949,-13.435428 8.397386,-18.013748 z"
       sodipodi:nodetypes="acaca" />
    <path
       id="path388"
       style="fill:#ffbe6f;stroke:none;stroke-width:2.53814;stroke-linecap:round;stroke-miterlimit:7.2;paint-order:stroke fill markers"
       d="m 80.281785,46.476791 c -2.673907,4.009374 -5.425957,7.254369 -10.371517,10.495468 -4.678588,3.066137 -8.566952,0.709256 -8.566952,-5.087231 0,-5.796487 9.555723,-16.154974 15.149503,-16.154974 5.59378,0 7.005104,5.924319 3.788966,10.746737 z"
       sodipodi:nodetypes="sssss"
       inkscape:label="iris-fill" />
    <path
       style="fill:#000000;stroke:#000000;stroke-width:2.538;stroke-linecap:butt;stroke-linejoin:miter;stroke-miterlimit:6;stroke-dasharray:none;stroke-opacity:1"
       d="m 67.434417,43.29878 4.012117,7.327036 1.785435,-13.197976"
       id="path1178"
       sodipodi:nodetypes="ccc"
       inkscape:label="pupil" />
    <ellipse
       style="display:inline;fill:#fa588c;fill-opacity:1;stroke:none;stroke-width:4.9027;stroke-linecap:butt;stroke-linejoin:miter;stroke-miterlimit:9;stroke-dasharray:none;stroke-opacity:1;paint-order:stroke fill markers"
       id="ellipse4563"
       cx="71.235893"
       cy="23.486559"
       rx="5.3132167"
       ry="4.7036939"
       inkscape:label="ear-pink" />
    <g
       inkscape:groupmode="layer"
       id="layer5"
       inkscape:label="strokes"
       style="stroke:#241f31">
      <g
         inkscape:groupmode="layer"
         id="layer6"
         inkscape:label="not-psi"
         style="stroke:#3d3846">
        <path
           style="display:inline;fill:none;stroke:#3d3846;stroke-width:2;stroke-linecap:round;stroke-linejoin:miter;stroke-dasharray:none;stroke-opacity:1"
           d="M 59.250714,59.780399 C 76.648382,59.58414 81.26038,44.908288 85.426759,34.586761"
           id="path1154"
           sodipodi:nodetypes="cc"
           inkscape:label="eye-under-curve" />
        <path
           style="display:inline;fill:none;stroke:#3d3846;stroke-width:2;stroke-linecap:butt;stroke-linejoin:miter;stroke-dasharray:none;stroke-opacity:1"
           d="m 61.343316,51.885028 c 0,0 0.215981,2.922387 1.750387,4.778472 1.534407,1.856084 4.19394,1.97311 4.19394,1.97311"
           id="path1174"
           sodipodi:nodetypes="czc"
           inkscape:label="caruncula-curve" />
        <path
           style="display:inline;fill:none;stroke:#3d3846;stroke-width:2;stroke-linecap:butt;stroke-linejoin:miter;stroke-dasharray:none;stroke-opacity:1"
           d="m 76.492819,35.730054 c 0,0 2.030129,0.226062 3.858604,2.560306 1.828474,2.334247 1.617052,5.02135 1.617052,5.02135"
           id="path1176"
           sodipodi:nodetypes="czc"
           inkscape:label="eye-outer-curve" />
      </g>
      <path
         style="color:#000000;fill:#241f31;stroke:none;stroke-linecap:round;-inkscape-stroke:none"
         d="m 62.947266,32.587891 c -1.716105,0.317675 -4.570735,-0.197088 -5.863282,0.867187 -1.332802,1.204182 -2.167871,2.353749 -2.704331,3.559039 -0.904937,2.033165 -4.383559,1.610067 -4.383559,1.610067 l -0.04819,2.834704 0.0521,18.57207 c 0.0031,1.104566 1e-6,2.94891 1e-6,2.94891 L 52,60.03125 V 42.327309 c 1.933737,-0.237787 4.76932,-1.622832 6.300781,-5.063637 1.465644,-0.561089 2.974386,-0.586818 4.517578,-0.677735 l 2.064453,-1.935546 z"
         id="path2671"
         sodipodi:nodetypes="ccsccsccccccc"
         inkscape:label="forehead-path" />
      <path
         style="stroke:none;color:#000000;fill:#241f31;stroke-linecap:round;-inkscape-stroke:none"
         d="m 85.427734,32.085937 c 0,0 -8.737139,0.487113 -12.603515,2.433594 -3.866376,1.946481 -7.263988,5.284256 -10.53711,10.458985 -4.497437,7.110343 -7.207031,18.640625 -7.207031,18.640625 L 53.500487,65.981774 50,67.329144 l 0,2.581438 v 2.019484 l 5.333986,-2.023816 c 0,0 3.853895,-2.325788 4.572266,-4.980469 1.292765,-4.777304 2.63595,-10.996587 6.607422,-17.27539 2.963431,-4.685115 5.673353,-7.211523 8.558594,-8.664063 2.88524,-1.45254 10.355468,-1.900391 10.355468,-1.900391 l 6.097024,-5.06762 z"
         id="path1829"
         sodipodi:nodetypes="cssccccccsssccc"
         inkscape:label="nose-path" />
      <path
         style="fill:none;stroke:#241f31;stroke-width:5;stroke-linecap:round;stroke-linejoin:miter;stroke-dasharray:none;stroke-opacity:1"
         d="m 50.000001,75.750171 c 0,2.265558 2.69322,5.09494 5.215742,5.434678 2.522523,0.339738 6.529101,-0.125488 8.441245,-2.950674"
         id="path1168"
         sodipodi:nodetypes="czc"
         inkscape:label="mouth" />
      <g
         id="path4391"
         inkscape:label="ear-path"
         transform="translate(1.3537688)"
         style="stroke:none;stroke-opacity:1">
        <path
           style="color:#000000;display:none;fill:#5e5c64;stroke:none;stroke-width:5;stroke-miterlimit:7.2;-inkscape-stroke:none;stroke-opacity:1"
           d="M 60.048921,29.644456 C 63.671304,20.700574 68.985639,18.61943 76.757191,14.179894 71.539597,20.982573 77.17561,26.316327 75.12003,29.644456"
           id="path4396" />
        <path
           style="color:#000000;display:inline;fill:#3d3846;stroke:none;stroke-miterlimit:7.2;-inkscape-stroke:none;stroke-opacity:1"
           d="M 86.294922,5.8515625 75.517578,12.009766 c -3.818753,2.181481 -7.192908,3.839303 -10.228516,6.257812 -3.594392,3.90421 -5.242392,6.175722 -5.126362,11.422111 4.2548,-3.902388 4.496564,-4.229941 6.843223,-6.332626 1.326104,-1.188234 2.726915,-2.782773 5.105405,-3.630501 0.864318,3.529642 1.995651,5.62978 5.134765,11.232422 0,0 0.932459,-3.205574 0.736328,-4.541015 -0.196131,-1.335441 -0.553405,-2.521216 -0.775391,-3.675782 -0.443972,-2.309131 -0.619011,-4.234966 1.533203,-7.041015 z"
           id="path4398"
           sodipodi:nodetypes="ccccsccsscc" />
      </g>
      <path
         style="display:inline;fill:none;stroke:#3d3846;stroke-width:2;stroke-linecap:butt;stroke-linejoin:miter;stroke-miterlimit:9;stroke-dasharray:none;paint-order:stroke fill markers"
         d="m 54.547818,21.819761 c 0.347855,-4.401171 2.303421,-8.752505 2.733378,-11.120814"
         id="path3521"
         sodipodi:nodetypes="cc"
         inkscape:label="top-hair-middle" />
      <path
         style="display:inline;fill:none;stroke:#3d3846;stroke-width:2;stroke-linecap:butt;stroke-linejoin:miter;stroke-miterlimit:9;stroke-dasharray:none;paint-order:stroke fill markers"
         d="m 58.887371,21.179836 c 0.851246,-4.179319 2.866969,-6.089716 3.868683,-9.047857"
         id="path3525"
         sodipodi:nodetypes="cc"
         inkscape:label="top-hair-outer" />
      <g
         id="g1125"
         inkscape:label="whiskers"
         style="display:inline">
        <path
           style="color:#000000;fill:#9a9996;stroke:none;stroke-width:0.590073"
           d="m 70.889681,64.753447 c -3.208418,-0.178608 -7.678106,5.829178 -7.678106,5.829178 0,0 4.495071,-2.958151 7.064825,-3.126814 1.731314,-0.113633 4.994281,1.466425 4.994281,1.466425 0,0 -2.368291,-4.056744 -4.381,-4.168789 z"
           id="path3600"
           sodipodi:nodetypes="acaca"
           inkscape:label="whisker" />
        <use
           x="0"
           y="0"
           xlink:href="#path3600"
           id="use3606"
           transform="rotate(48.874584,60.834786,72.440711)"
           style="display:inline;stroke:#9a9996"
           inkscape:transform-center-x="-3.7681058"
           inkscape:transform-center-y="3.9686801" />
        <use
           x="0"
           y="0"
           xlink:href="#path3600"
           id="use3608"
           transform="rotate(25.863008,61.164586,72.545579)"
           style="display:inline;stroke:#9a9996"
           inkscape:transform-center-x="-4.5931782"
           inkscape:transform-center-y="1.0106624" />
      </g>
    </g>
  </g>
  <g
     inkscape:groupmode="layer"
     id="layer2"
     inkscape:label="left-side">
    <use
       x="0"
       y="0"
       xlink:href="#path1257"
       id="use1260"
       transform="matrix(-1,0,0,1,99.829525,0)" />
    <use
       x="0"
       y="0"
       xlink:href="#ellipse4563"
       id="use5372"
       transform="matrix(-1,0,0,1,100.34835,0)" />
    <use
       x="0"
       y="0"
       xlink:href="#path3521"
       id="use3529"
       transform="matrix(-1,0,0,1,100.02077,0)"
       style="stroke:#241f31" />
    <use
       x="0"
       y="0"
       xlink:href="#path3525"
       id="use3532"
       style="stroke:#241f31"
       transform="matrix(-1,0,0,1,100.0114,0)" />
    <use
       x="0"
       y="0"
       xlink:href="#path4398"
       id="use4400"
       transform="matrix(-1,0,0,1,98.75681,0)"
       style="display:inline;stroke:#241f31" />
    <use
       x="0"
       y="0"
       xlink:href="#rect1722"
       id="use1980"
       transform="matrix(-1,0,0,1,99.46726,0)"
       style="display:inline" />
    <use
       x="0"
       y="0"
       xlink:href="#path2671"
       id="use2678"
       style="stroke:#241f31"
       transform="matrix(-1,0,0,1,99.992188,0)" />
    <use
       x="0"
       y="0"
       xlink:href="#path388"
       id="use558"
       transform="matrix(-1,0,0,1,100.34939,0)"
       style="display:inline" />
    <use
       x="0"
       y="0"
       xlink:href="#path1154"
       id="use1160"
       transform="matrix(-1,0,0,1,100,-1.9781955e-7)"
       style="display:inline" />
    <use
       x="0"
       y="0"
       xlink:href="#path1178"
       id="use1186"
       transform="matrix(-1,0,0,1,100.02987,-1.9781955e-7)"
       style="display:inline" />
    <use
       x="0"
       y="0"
       xlink:href="#path1174"
       id="use1182"
       transform="matrix(-1,0,0,1,100.02987,-1.9781955e-7)" />
    <use
       x="0"
       y="0"
       xlink:href="#path1176"
       id="use1184"
       transform="matrix(-1,0,0,1,100.02987,-1.9781955e-7)" />
    <use
       x="0"
       y="0"
       xlink:href="#path1829"
       id="use1837"
       transform="matrix(-1,0,0,1,100,0)"
       style="display:inline;stroke:#241f31" />
    <use
       x="0"
       y="0"
       xlink:href="#path1168"
       id="use1170"
       transform="matrix(-1,0,0,1,100,-2.1180015e-7)" />
    <use
       x="0"
       y="0"
       xlink:href="#g1125"
       id="use1127"
       style="stroke:#241f31"
       transform="matrix(-1,0,0,1,99.248329,0)" />
  </g>
  <g
     inkscape:groupmode="layer"
     id="layer3"
     inkscape:label="center"
     style="stroke:#241f31">
    <path
       style="display:inline;fill:none;stroke:#3d3846;stroke-width:2;stroke-linecap:butt;stroke-linejoin:miter;stroke-miterlimit:9;stroke-dasharray:none;paint-order:stroke fill markers"
       d="M 50,22.493877 V 10"
       id="path3527"
       sodipodi:nodetypes="cc"
       inkscape:label="top-hair" />
    <path
       style="display:inline;fill:none;stroke:#241f31;stroke-width:5;stroke-linecap:butt;stroke-linejoin:miter;stroke-dasharray:none;stroke-opacity:1"
       d="m 50,69.603355 10e-7,7.617163"
       id="path1000"
       sodipodi:nodetypes="cc"
       inkscape:label="mouth-vert-line" />
    <path
       style="display:inline;fill:none;stroke:#241f31;stroke-width:4;stroke-linecap:butt;stroke-linejoin:miter;stroke-dasharray:none;stroke-opacity:1"
       d="m 44.784258,81.184849 c 0,0 3.419483,-1.354614 5.215743,-1.354614 1.79626,0 5.215742,1.354614 5.215742,1.354614"
       id="path1180"
       sodipodi:nodetypes="cac"
       inkscape:label="mouth-smooth-line" />
  </g>
  <metadata
     id="metadata487">
    <rdf:RDF>
      <cc:Work
         rdf:about="">
        <cc:license
           rdf:resource="http://creativecommons.org/licenses/by-sa/4.0/" />
        <dc:title>NyanoTrasen Cat-Psi Icon</dc:title>
        <dc:date>2022-10-27</dc:date>
        <dc:creator>
          <cc:Agent>
            <dc:title>@Vordenburg on GitHub</dc:title>
          </cc:Agent>
        </dc:creator>
      </cc:Work>
      <cc:License
         rdf:about="http://creativecommons.org/licenses/by-sa/4.0/">
        <cc:permits
           rdf:resource="http://creativecommons.org/ns#Reproduction" />
        <cc:permits
           rdf:resource="http://creativecommons.org/ns#Distribution" />
        <cc:requires
           rdf:resource="http://creativecommons.org/ns#Notice" />
        <cc:requires
           rdf:resource="http://creativecommons.org/ns#Attribution" />
        <cc:permits
           rdf:resource="http://creativecommons.org/ns#DerivativeWorks" />
        <cc:requires
           rdf:resource="http://creativecommons.org/ns#ShareAlike" />
      </cc:License>
    </rdf:RDF>
  </metadata>
</svg>
